<?xml version="1.0"?>
<svg xmlns="http://www.w3.org/2000/svg" xmlns:xlink="http://www.w3.org/1999/xlink" version="1.1" id="Capa_1" x="0px" y="0px" viewBox="0 0 512 512" style="enable-background:new 0 0 512 512;" xml:space="preserve" width="120px" height="120px" class=""><g><rect x="7.5" y="175" style="fill:#66CC99" width="497" height="162" data-original="#CBDAE0" class="" data-old_color="#CBDAE0"/><rect x="474.5" y="175" style="fill:#66CC99" width="30" height="162" data-original="#A8B5BA" class="" data-old_color="#A8B5BA"/><g>
	<polygon style="fill:#FFFFFF" points="289.07,224 289.07,269.982 275.813,269.982 275.813,288 234.327,288 234.327,269.982    221.07,269.982 221.07,224  " data-original="#444B66" class="" data-old_color="#B6B6B6"/>
	<polygon style="fill:#FFFFFF" points="196.259,224 196.259,269.982 183.001,269.982 183.001,288 141.516,288 141.516,269.982    128.259,269.982 128.259,224  " data-original="#444B66" class="" data-old_color="#B6B6B6"/>
	<polygon style="fill:#FFFFFF" points="381.785,224 381.785,269.982 368.528,269.982 368.528,288 327.042,288 327.042,269.982    313.785,269.982 313.785,224  " data-original="#444B66" class="" data-old_color="#B6B6B6"/>
	<polygon style="fill:#FFFFFF" points="474.5,224 474.5,269.982 461.243,269.982 461.243,288 419.757,288 419.757,269.982    406.5,269.982 406.5,224  " data-original="#444B66" class="" data-old_color="#B6B6B6"/>
</g><rect x="41" y="337" style="fill:#6E6B87" width="430" height="30" data-original="#6E6B87" class=""/><rect x="441" y="337" style="fill:#625F78" width="30" height="30" data-original="#625F78" class=""/><rect x="41" y="145" style="fill:#7DE6E8" width="430" height="30" data-original="#EC5569" class="active-path" data-old_color="#EC5569"/><rect x="441" y="145" style="fill:#7DE6E8" width="30" height="30" data-original="#BD2C30" class="" data-old_color="#BD2C30"/><path d="M504.5,167.5h-26V145c0-4.142-3.358-7.5-7.5-7.5H41c-4.142,0-7.5,3.358-7.5,7.5v22.5h-26c-4.142,0-7.5,3.358-7.5,7.5v113  c0,4.142,3.358,7.5,7.5,7.5s7.5-3.358,7.5-7.5V182.5h48.667c4.142,0,7.5-3.358,7.5-7.5s-3.358-7.5-7.5-7.5H48.5v-15h415v15H96  c-4.142,0-7.5,3.358-7.5,7.5s3.358,7.5,7.5,7.5h401v147h-48.75c-4.142,0-7.5,3.358-7.5,7.5s3.358,7.5,7.5,7.5h15.25v15h-415v-15  h367.25c4.142,0,7.5-3.358,7.5-7.5s-3.358-7.5-7.5-7.5H15V320c0-4.142-3.358-7.5-7.5-7.5S0,315.858,0,320v17  c0,4.142,3.358,7.5,7.5,7.5h26V367c0,4.142,3.358,7.5,7.5,7.5h430c4.142,0,7.5-3.358,7.5-7.5v-22.5h26c4.142,0,7.5-3.358,7.5-7.5  V175C512,170.858,508.642,167.5,504.5,167.5z" data-original="#000000" class=""/><path d="M234.327,295.5h41.485c4.142,0,7.5-3.358,7.5-7.5v-10.518h5.757c4.142,0,7.5-3.358,7.5-7.5V224c0-4.142-3.358-7.5-7.5-7.5  h-68c-4.142,0-7.5,3.358-7.5,7.5v45.982c0,4.142,3.358,7.5,7.5,7.5h5.757V288C226.827,292.142,230.185,295.5,234.327,295.5z   M228.57,231.5h53v30.982h-5.757c-4.142,0-7.5,3.358-7.5,7.5V280.5h-26.485v-10.518c0-4.142-3.358-7.5-7.5-7.5h-5.757V231.5H228.57z  " data-original="#000000" class=""/><path d="M141.516,295.5h41.486c4.142,0,7.5-3.358,7.5-7.5v-10.518h5.757c4.142,0,7.5-3.358,7.5-7.5V224c0-4.142-3.358-7.5-7.5-7.5  h-68c-4.142,0-7.5,3.358-7.5,7.5v45.982c0,4.142,3.358,7.5,7.5,7.5h5.757V288C134.016,292.142,137.374,295.5,141.516,295.5z   M135.759,231.5h53v30.982h-5.757c-4.142,0-7.5,3.358-7.5,7.5V280.5h-26.486v-10.518c0-4.142-3.358-7.5-7.5-7.5h-5.757  L135.759,231.5L135.759,231.5z" data-original="#000000" class=""/><path d="M327.042,295.5h41.486c4.142,0,7.5-3.358,7.5-7.5v-10.518h5.757c4.142,0,7.5-3.358,7.5-7.5V224c0-4.142-3.358-7.5-7.5-7.5  h-68c-4.142,0-7.5,3.358-7.5,7.5v45.982c0,4.142,3.358,7.5,7.5,7.5h5.757V288C319.542,292.142,322.9,295.5,327.042,295.5z   M321.285,231.5h53v30.982h-5.757c-4.142,0-7.5,3.358-7.5,7.5V280.5h-26.486v-10.518c0-4.142-3.358-7.5-7.5-7.5h-5.757  L321.285,231.5L321.285,231.5z" data-original="#000000" class=""/><path d="M419.757,295.5h41.485c4.142,0,7.5-3.358,7.5-7.5v-10.518h5.757c4.142,0,7.5-3.358,7.5-7.5V224c0-4.142-3.358-7.5-7.5-7.5  h-68c-4.142,0-7.5,3.358-7.5,7.5v45.982c0,4.142,3.358,7.5,7.5,7.5h5.757V288C412.257,292.142,415.615,295.5,419.757,295.5z   M414,231.5h53v30.982h-5.757c-4.142,0-7.5,3.358-7.5,7.5V280.5h-26.485v-10.518c0-4.142-3.358-7.5-7.5-7.5H414V231.5z" data-original="#000000" class=""/><path d="M41.27,232.944h56.629c4.142,0,7.5-3.358,7.5-7.5s-3.358-7.5-7.5-7.5H41.27c-4.142,0-7.5,3.358-7.5,7.5  S37.128,232.944,41.27,232.944z" data-original="#000000" class=""/><path d="M41.27,253.314h56.629c4.142,0,7.5-3.358,7.5-7.5s-3.358-7.5-7.5-7.5H41.27c-4.142,0-7.5,3.358-7.5,7.5  S37.128,253.314,41.27,253.314z" data-original="#000000" class=""/><path d="M41.27,273.686h56.629c4.142,0,7.5-3.358,7.5-7.5s-3.358-7.5-7.5-7.5H41.27c-4.142,0-7.5,3.358-7.5,7.5  S37.128,273.686,41.27,273.686z" data-original="#000000" class=""/><path d="M41.27,294.056h56.629c4.142,0,7.5-3.358,7.5-7.5s-3.358-7.5-7.5-7.5H41.27c-4.142,0-7.5,3.358-7.5,7.5  S37.128,294.056,41.27,294.056z" data-original="#000000" class=""/></g> </svg>
