<?xml version="1.0"?>
<svg xmlns="http://www.w3.org/2000/svg" xmlns:xlink="http://www.w3.org/1999/xlink" version="1.1" id="Capa_1" x="0px" y="0px" viewBox="0 0 512 512" style="enable-background:new 0 0 512 512;" xml:space="preserve" width="120px" height="120px" class=""><g><path style="fill:#6E6B87;" d="M342.667,435.71H169.333c0,0,17.12-18.54,17.12-66.52h139.094  C325.547,417.17,342.667,435.71,342.667,435.71z" data-original="#6E6B87" class=""/><path style="fill:#625F78;" d="M325.547,369.19h-30.5c0,47.98,17.12,66.52,17.12,66.52h30.5  C342.667,435.71,325.547,417.17,325.547,369.19z" data-original="#625F78"/><path style="fill:#444B66;" d="M464.5,378.5h-417c-22.091,0-40-17.909-40-40v-245c0-22.091,17.909-40,40-40h417  c22.091,0,40,17.909,40,40v245C504.5,360.591,486.591,378.5,464.5,378.5z" data-original="#444B66" class=""/><path style="fill:#3D435C;" d="M464.5,53.5h-30c22.091,0,40,17.909,40,40v245c0,22.091-17.909,40-40,40h30c22.091,0,40-17.909,40-40  v-245C504.5,71.409,486.591,53.5,464.5,53.5z" data-original="#3D435C" class=""/><path style="fill:#66CC99" d="M47.5,348.5c-5.514,0-10-4.486-10-10v-245c0-5.514,4.486-10,10-10h417c5.514,0,10,4.486,10,10v245  c0,5.514-4.486,10-10,10H47.5z" data-original="#6AD2EB" class="" data-old_color="#6AD2EB"/><path style="fill:#CBDAE0;" d="M464.5,378.5h-417c-22.091,0-40-17.909-40-40v-10h497v10C504.5,360.591,486.591,378.5,464.5,378.5z" data-original="#CBDAE0" class=""/><path style="fill:#A8B5BA;" d="M474.5,328.5v10c0,22.091-17.909,40-40,40h30c22.091,0,40-17.909,40-40v-10H474.5z" data-original="#A8B5BA" class=""/><path style="fill:#CBDAE0;" d="M375,458.5H137c-8.284,0-15-6.716-15-15l0,0c0-8.284,6.716-15,15-15h238c8.284,0,15,6.716,15,15l0,0  C390,451.784,383.284,458.5,375,458.5z" data-original="#CBDAE0" class=""/><path style="fill:#A8B5BA;" d="M375,428.5h-30.125c8.284,0,15,6.716,15,15s-6.716,15-15,15H375c8.284,0,15-6.716,15-15  S383.284,428.5,375,428.5z" data-original="#A8B5BA" class=""/><circle style="fill:#7DE6E8" cx="148" cy="202.88" r="78.5" data-original="#FAD87C" class="active-path" data-old_color="#FAD87C"/><path d="M464.5,46h-417C21.309,46,0,67.309,0,93.5v10.375c0,4.143,3.358,7.5,7.5,7.5s7.5-3.357,7.5-7.5V93.5  C15,75.579,29.58,61,47.5,61h417c17.92,0,32.5,14.579,32.5,32.5V321h-15v-1.083c0-4.143-3.358-7.5-7.5-7.5s-7.5,3.357-7.5,7.5V321  H96.125c-4.142,0-7.5,3.357-7.5,7.5s3.358,7.5,7.5,7.5H497v2.5c0,17.921-14.58,32.5-32.5,32.5h-417C29.58,371,15,356.421,15,338.5  V336h49.125c4.142,0,7.5-3.357,7.5-7.5s-3.358-7.5-7.5-7.5H45V93.5c0-1.379,1.122-2.5,2.5-2.5h417c1.378,0,2.5,1.121,2.5,2.5  v194.333c0,4.143,3.358,7.5,7.5,7.5s7.5-3.357,7.5-7.5V93.5c0-9.649-7.851-17.5-17.5-17.5h-417C37.851,76,30,83.851,30,93.5V321H15  V135.75c0-4.143-3.358-7.5-7.5-7.5s-7.5,3.357-7.5,7.5V338.5l0,0C0,364.691,21.309,386,47.5,386h130.656  c-1.56,16.17-5.197,27.495-8.665,35H137c-12.407,0-22.5,10.094-22.5,22.5S124.593,466,137,466h238c12.407,0,22.5-10.094,22.5-22.5  S387.407,421,375,421h-32.491c-3.468-7.505-7.105-18.83-8.665-35H464.5c26.191,0,47.5-21.309,47.5-47.5l0,0v-245  C512,67.309,490.691,46,464.5,46z M382.5,443.5c0,4.136-3.364,7.5-7.5,7.5H137c-4.136,0-7.5-3.364-7.5-7.5s3.364-7.5,7.5-7.5l0,0  c0.005,0-0.005,0,0,0s-0.005,0,0,0h238c0.005,0-0.005,0,0,0s-0.005,0,0,0l0,0C379.136,436,382.5,439.364,382.5,443.5z M326.275,421  h-140.55c3.221-8.597,6.167-20.121,7.484-35H318.79C320.107,400.879,323.054,412.403,326.275,421z" data-original="#000000" class=""/><path d="M272.333,131.258c-4.142,0-7.5,3.357-7.5,7.5V267c0,4.143,3.358,7.5,7.5,7.5h150.535c4.142,0,7.5-3.357,7.5-7.5  s-3.358-7.5-7.5-7.5H279.833v-36.64c1.527,1.241,3.504,1.872,5.534,1.655c2.969-0.323,5.464-2.378,6.351-5.229l7.361-23.683  l3.963,9.15c1.215,2.805,4.012,4.578,7.065,4.518c3.055-0.075,5.76-1.996,6.836-4.855l2.625-6.976l7.901,16.81  c1.258,2.677,3.978,4.359,6.927,4.309c2.956-0.055,5.604-1.842,6.762-4.563l5.266-12.376l2.125,3.829  c1.431,2.579,4.236,4.08,7.18,3.834c2.939-0.244,5.462-2.189,6.447-4.97l3.868-10.917l3.059,8.528  c1.069,2.98,3.894,4.968,7.06,4.968c0.006,0,0.012,0,0.018,0c3.172-0.008,5.997-2.01,7.054-5.001l1.978-5.597l12.124,35.092  c1.048,3.033,3.902,5.051,7.086,5.051c0.113,0,0.228-0.003,0.342-0.008c3.32-0.15,6.145-2.468,6.941-5.694l11.695-47.378  c0.993-4.021-1.462-8.087-5.484-9.079c-4.023-0.996-8.086,1.463-9.079,5.484l-5.613,22.736l-10.844-31.389  c-1.041-3.014-3.874-5.039-7.063-5.051c-0.009,0-0.018,0-0.027,0c-3.177,0-6.011,2.003-7.071,5.001l-2.111,5.973l-3.051-8.506  c-1.069-2.98-3.894-4.968-7.06-4.968c-0.005,0-0.01,0-0.015,0c-3.171,0.006-5.996,2.007-7.055,4.996l-5.337,15.068l-1.501-2.704  c-1.391-2.505-4.085-3.988-6.949-3.851c-2.862,0.149-5.388,1.917-6.51,4.554l-4.716,11.082l-8.326-17.713  c-1.282-2.728-4.048-4.41-7.085-4.304c-3.012,0.12-5.66,2.031-6.721,4.852l-2.348,6.238l-4.634-10.699  c-1.246-2.878-4.134-4.672-7.285-4.509c-3.132,0.168-5.829,2.268-6.76,5.263l-8.24,26.512l-2.685-4.708v-54.878  C279.833,134.615,276.476,131.258,272.333,131.258z" data-original="#000000" class=""/><path d="M148,116.879c-26.548,0-50.319,12.097-66.107,31.062c-0.274,0.288-0.527,0.599-0.756,0.934  C69.181,163.649,62,182.437,62,202.879c0,20.444,7.183,39.234,19.141,54.009c0.225,0.329,0.474,0.635,0.742,0.918  c15.788,18.972,39.563,31.073,66.117,31.073c26.586,0,50.388-12.129,66.176-31.141c0.197-0.212,0.376-0.442,0.549-0.68  c12.04-14.8,19.275-33.657,19.275-54.179c0-20.442-7.182-39.231-19.138-54.005c-0.228-0.334-0.48-0.644-0.753-0.931  C198.321,128.976,174.549,116.879,148,116.879z M206.162,243.525c-1.828-0.676-3.738-1.325-5.743-1.94  c3.289-9.67,5.317-20.228,5.953-31.206h12.229C217.31,222.619,212.886,233.933,206.162,243.525z M77.399,210.379h12.229  c0.636,10.978,2.664,21.536,5.953,31.206c-2.004,0.615-3.914,1.264-5.743,1.94C83.114,233.933,78.69,222.619,77.399,210.379z   M89.838,162.232c1.828,0.676,3.738,1.325,5.743,1.94c-3.289,9.67-5.317,20.229-5.953,31.206H77.399  C78.69,183.138,83.114,171.824,89.838,162.232z M194.497,150.284c-0.33-0.631-0.67-1.253-1.013-1.871  c0.633,0.53,1.257,1.07,1.871,1.621C195.073,150.119,194.783,150.201,194.497,150.284z M154.908,234.671  c-4.594-0.142-9.212-0.142-13.814,0c-0.698-7.644-1.143-15.854-1.309-24.293h16.434C156.047,219.368,155.575,227.48,154.908,234.671  z M139.782,195.379c0.172-8.989,0.643-17.1,1.311-24.292c2.299,0.071,4.603,0.12,6.908,0.12c2.304,0,4.607-0.048,6.907-0.12  c0.698,7.644,1.143,15.853,1.309,24.292H139.782z M166.52,145.892c-0.568-2.823-1.218-5.731-1.991-8.569  c4.845,3.307,9.359,8.058,13.318,14.14c0.478,0.734,0.938,1.488,1.393,2.248c-3.577,0.601-7.286,1.103-11.106,1.498  C167.647,151.94,167.109,148.823,166.52,145.892z M153.101,156.135c-3.388,0.082-6.788,0.083-10.172,0.001  c1.538-9.811,3.398-16.881,5.048-21.004c1.329,3.206,3.084,8.843,4.718,18.496C152.835,154.45,152.97,155.287,153.101,156.135z   M129.48,145.892c-0.59,2.932-1.128,6.048-1.614,9.316c-3.826-0.396-7.534-0.897-11.106-1.497c0.455-0.76,0.915-1.514,1.393-2.248  c3.959-6.082,8.474-10.833,13.318-14.14C130.699,140.16,130.048,143.069,129.48,145.892z M110.197,167.771  c5.061,0.976,10.383,1.758,15.92,2.336c-0.718,7.959-1.173,16.469-1.337,25.271h-20.133  C105.286,185.576,107.18,176.228,110.197,167.771z M124.78,210.379c0.164,8.802,0.619,17.311,1.337,25.27  c-5.528,0.578-10.852,1.359-15.92,2.338c-3.017-8.456-4.911-17.805-5.55-27.608H124.78z M127.867,250.548  c0.486,3.269,1.024,6.386,1.614,9.318c0.568,2.823,1.218,5.731,1.991,8.569c-4.845-3.307-9.359-8.058-13.318-14.14  c-0.478-0.734-0.939-1.488-1.393-2.249C120.337,251.445,124.046,250.943,127.867,250.548z M142.899,249.622  c3.389-0.082,6.788-0.083,10.172-0.001c-1.538,9.812-3.398,16.882-5.049,21.005c-1.329-3.206-3.084-8.843-4.718-18.496  C143.165,251.308,143.03,250.47,142.899,249.622z M166.52,259.866c0.59-2.932,1.128-6.049,1.614-9.317  c3.826,0.396,7.534,0.897,11.107,1.498c-0.455,0.76-0.915,1.514-1.393,2.249c-3.959,6.082-8.474,10.833-13.318,14.14  C165.301,265.598,165.952,262.689,166.52,259.866z M185.803,237.986c-5.06-0.976-10.383-1.758-15.92-2.336  c0.718-7.959,1.173-16.468,1.337-25.271h20.133C190.714,220.181,188.82,229.53,185.803,237.986z M171.22,195.379  c-0.164-8.803-0.619-17.312-1.337-25.271c5.527-0.577,10.851-1.359,15.92-2.337c3.017,8.457,4.912,17.806,5.55,27.608H171.22z   M101.503,150.284c-0.286-0.083-0.576-0.166-0.858-0.25c0.614-0.551,1.238-1.092,1.871-1.621  C102.173,149.032,101.834,149.653,101.503,150.284z M101.503,255.474c0.33,0.631,0.67,1.252,1.013,1.871  c-0.633-0.53-1.257-1.07-1.871-1.621C100.927,255.639,101.217,255.557,101.503,255.474z M194.497,255.474  c0.286,0.083,0.576,0.166,0.858,0.25c-0.614,0.551-1.238,1.091-1.871,1.621C193.827,256.726,194.166,256.104,194.497,255.474z   M206.372,195.379c-0.636-10.978-2.664-21.536-5.953-31.206c2.004-0.615,3.914-1.264,5.743-1.94  c6.724,9.592,11.147,20.906,12.439,33.146H206.372z" data-original="#000000" class=""/></g> </svg>
