<?xml version="1.0"?>
<svg xmlns="http://www.w3.org/2000/svg" xmlns:xlink="http://www.w3.org/1999/xlink" version="1.1" id="Capa_1" x="0px" y="0px" viewBox="0 0 512.001 512.001" style="enable-background:new 0 0 512.001 512.001;" xml:space="preserve" width="120px" height="120px" class=""><g><rect x="115" y="7.5" style="fill:#66CC99" width="282" height="497" data-original="#EC5569" class="" data-old_color="#EC5569"/><rect x="367" y="7.5" style="fill:#66CC99" width="30" height="497" data-original="#E63950" class="" data-old_color="#E63950"/><rect x="115" y="55.689" style="fill:#42B6D1" width="282" height="146.31" data-original="#6AD2EB" class="active-path" data-old_color="#7DE6E8"/><rect x="367" y="55.689" style="fill:#42B6D1" width="30" height="146.31" data-original="#42B6D1" class=""/><rect x="115" y="202" style="fill:#6E6B87" width="282" height="260" data-original="#6E6B87" class=""/><rect x="367" y="202" style="fill:#625F78" width="30" height="260" data-original="#625F78" class=""/><g>
	<circle style="fill:#FFFFFF" cx="348" cy="102" r="15" data-original="#FAD87C" class="" data-old_color="#FDE8B4"/>
	<circle style="fill:#FFFFFF" cx="348" cy="155.25" r="15" data-original="#FAD87C" class="" data-old_color="#FDE8B4"/>
</g><rect x="145" y="103.96" style="fill:#CAEEFC" width="136.75" height="45.04" data-original="#CAEEFC" class=""/><g>
	<circle style="fill:#66CC99" cx="31.5" cy="295.1" r="24" data-original="#EC5569" class="" data-old_color="#EC5569"/>
	<circle style="fill:#66CC99" cx="55.5" cy="480.5" r="24" data-original="#EC5569" class="" data-old_color="#EC5569"/>
	<circle style="fill:#66CC99" cx="480.5" cy="478.641" r="24" data-original="#EC5569" class="" data-old_color="#EC5569"/>
	<circle style="fill:#66CC99" cx="456.5" cy="293.24" r="24" data-original="#EC5569" class="" data-old_color="#EC5569"/>
</g><path d="M348,124.5c12.406,0,22.5-10.094,22.5-22.5S360.406,79.5,348,79.5s-22.5,10.094-22.5,22.5S335.594,124.5,348,124.5z   M348,94.5c4.136,0,7.5,3.364,7.5,7.5s-3.364,7.5-7.5,7.5s-7.5-3.364-7.5-7.5S343.864,94.5,348,94.5z" data-original="#000000" class=""/><path d="M348,177.75c12.406,0,22.5-10.094,22.5-22.5s-10.094-22.5-22.5-22.5s-22.5,10.094-22.5,22.5S335.594,177.75,348,177.75z   M348,147.75c4.136,0,7.5,3.364,7.5,7.5s-3.364,7.5-7.5,7.5s-7.5-3.364-7.5-7.5S343.864,147.75,348,147.75z" data-original="#000000" class=""/><circle cx="164.75" cy="238.5" r="7.5" data-original="#000000" class=""/><circle cx="201.25" cy="238.5" r="7.5" data-original="#000000" class=""/><circle cx="237.75" cy="238.5" r="7.5" data-original="#000000" class=""/><circle cx="274.25" cy="238.5" r="7.5" data-original="#000000" class=""/><circle cx="310.75" cy="238.5" r="7.5" data-original="#000000" class=""/><circle cx="347.25" cy="238.5" r="7.5" data-original="#000000" class=""/><circle cx="164.75" cy="425.27" r="7.5" data-original="#000000" class=""/><circle cx="201.25" cy="425.27" r="7.5" data-original="#000000" class=""/><circle cx="237.75" cy="425.27" r="7.5" data-original="#000000" class=""/><circle cx="274.25" cy="425.27" r="7.5" data-original="#000000" class=""/><circle cx="310.75" cy="425.27" r="7.5" data-original="#000000" class=""/><circle cx="347.25" cy="425.27" r="7.5" data-original="#000000" class=""/><circle cx="183" cy="269.24" r="7.5" data-original="#000000" class=""/><circle cx="219.5" cy="269.24" r="7.5" data-original="#000000" class=""/><circle cx="256" cy="269.24" r="7.5" data-original="#000000" class=""/><circle cx="292.5" cy="269.24" r="7.5" data-original="#000000" class=""/><circle cx="329" cy="269.24" r="7.5" data-original="#000000" class=""/><circle cx="164.75" cy="302.6" r="7.5" data-original="#000000" class=""/><circle cx="201.25" cy="302.6" r="7.5" data-original="#000000" class=""/><circle cx="237.75" cy="302.6" r="7.5" data-original="#000000" class=""/><circle cx="274.25" cy="302.6" r="7.5" data-original="#000000" class=""/><circle cx="310.75" cy="302.6" r="7.5" data-original="#000000" class=""/><circle cx="347.25" cy="302.6" r="7.5" data-original="#000000" class=""/><circle cx="183" cy="333.33" r="7.5" data-original="#000000" class=""/><circle cx="219.5" cy="333.33" r="7.5" data-original="#000000" class=""/><circle cx="256" cy="333.33" r="7.5" data-original="#000000" class=""/><circle cx="292.5" cy="333.33" r="7.5" data-original="#000000" class=""/><circle cx="329" cy="333.33" r="7.5" data-original="#000000" class=""/><circle cx="164.75" cy="366.69" r="7.5" data-original="#000000" class=""/><circle cx="201.25" cy="366.69" r="7.5" data-original="#000000" class=""/><circle cx="237.75" cy="366.69" r="7.5" data-original="#000000" class=""/><circle cx="274.25" cy="366.69" r="7.5" data-original="#000000" class=""/><circle cx="310.75" cy="366.69" r="7.5" data-original="#000000" class=""/><circle cx="347.25" cy="366.69" r="7.5" data-original="#000000" class=""/><circle cx="183" cy="397.43" r="7.5" data-original="#000000" class=""/><circle cx="219.5" cy="397.43" r="7.5" data-original="#000000" class=""/><circle cx="256" cy="397.43" r="7.5" data-original="#000000" class=""/><circle cx="292.5" cy="397.43" r="7.5" data-original="#000000" class=""/><circle cx="329" cy="397.43" r="7.5" data-original="#000000" class=""/><path d="M281.75,156.5c4.143,0,7.5-3.357,7.5-7.5v-45.04c0-4.143-3.357-7.5-7.5-7.5H145c-4.143,0-7.5,3.357-7.5,7.5V149  c0,4.143,3.357,7.5,7.5,7.5H281.75z M152.5,111.46h121.75v30.04H152.5V111.46z" data-original="#000000" class=""/><path d="M480.5,447.141c-14.785,0-27.216,10.241-30.591,24h-12.53v-64.1c0-4.143-3.357-7.5-7.5-7.5H404.5v-29.97h52  c4.143,0,7.5-3.357,7.5-7.5v-38.244c13.759-3.375,24-15.806,24-30.591c0-17.369-14.131-31.5-31.5-31.5s-31.5,14.131-31.5,31.5  c0,14.785,10.241,27.216,24,30.591v30.744h-44.5l0,0V7.5l0,0c0-4.143-3.357-7.5-7.5-7.5H115c-4.143,0-7.5,3.357-7.5,7.5v64.125  c0,4.143,3.357,7.5,7.5,7.5s7.5-3.357,7.5-7.5v-8.436h267V194.5h-37.167c-4.143,0-7.5,3.357-7.5,7.5s3.357,7.5,7.5,7.5H389.5v245  h-267v-245h197.333c4.143,0,7.5-3.357,7.5-7.5s-3.357-7.5-7.5-7.5H122.5v-90.54c0-4.143-3.357-7.5-7.5-7.5s-7.5,3.357-7.5,7.5  v255.23l0,0H89.62V295.1c0-4.143-3.357-7.5-7.5-7.5H62.092c-3.373-13.761-15.805-24.004-30.592-24.004  c-17.369,0-31.5,14.131-31.5,31.5s14.131,31.5,31.5,31.5c14.783,0,27.214-10.239,30.59-23.996h12.53v64.091  c0,4.143,3.357,7.5,7.5,7.5h25.38v29.979h-52c-4.143,0-7.5,3.357-7.5,7.5v38.239c-13.759,3.375-24,15.806-24,30.591  c0,17.369,14.131,31.5,31.5,31.5S87,497.869,87,480.5c0-14.785-10.241-27.216-24-30.591v-30.739h44.5l0,0v85.33  c0,4.143,3.357,7.5,7.5,7.5h44.667c4.143,0,7.5-3.357,7.5-7.5s-3.357-7.5-7.5-7.5H122.5v-27.5h267V497H191.833  c-4.143,0-7.5,3.357-7.5,7.5s3.357,7.5,7.5,7.5H397c4.143,0,7.5-3.357,7.5-7.5v-89.96l0,0h17.88v64.1c0,4.143,3.357,7.5,7.5,7.5  h20.03c3.374,13.759,15.806,24,30.591,24c17.369,0,31.5-14.131,31.5-31.5S497.869,447.141,480.5,447.141z M440,293.235  c0-9.098,7.402-16.5,16.5-16.5s16.5,7.402,16.5,16.5s-7.402,16.5-16.5,16.5S440,302.333,440,293.235z M31.5,311.596  c-9.098,0-16.5-7.402-16.5-16.5s7.402-16.5,16.5-16.5s16.5,7.402,16.5,16.5S40.598,311.596,31.5,311.596z M72,480.5  c0,9.098-7.402,16.5-16.5,16.5S39,489.598,39,480.5S46.402,464,55.5,464S72,471.402,72,480.5z M122.5,48.189V15h267v33.189H122.5z   M480.5,495.141c-9.098,0-16.5-7.402-16.5-16.5s7.402-16.5,16.5-16.5s16.5,7.402,16.5,16.5S489.598,495.141,480.5,495.141z" data-original="#000000" class=""/></g> </svg>
